# xmcd
#
# Track frame offsets:
#	150
#	21927
#	43007
#	69193
#	94971
#	111872
#	132374
#	151049
#	168849
#	187801
#
# Disc length: 2821 seconds
#
# Revision: 1
# Processed by: cddbd v1.5.1PL0 Copyright (c) Steve Scherf et al.
# Submitted via: audiograbber 1.83.01
#
DISCID=760b030a
DTITLE=Paul Edelman And The Jangling Sparrows - North American and Susquehanna
DYEAR=2003
DGENRE=Alternate Country
TTITLE0=Ode To An Illinois Lawyer
TTITLE1=Lead Me Out
TTITLE2=When It´s Gone
TTITLE3=Letter In The Dirt
TTITLE4=Thumb Me Down
TTITLE5=Bayview Dock
TTITLE6=Names Of The Trains
TTITLE7=Graveyard 76
TTITLE8=Like September
TTITLE9=The Deacon And The Lighthouse Keeper
EXTD=
EXTT0=
EXTT1=
EXTT2=
EXTT3=
EXTT4=
EXTT5=
EXTT6=
EXTT7=
EXTT8=
EXTT9=
PLAYORDER=
